<?xml version="1.0" encoding="UTF-8"?>
<!DOCTYPE svg PUBLIC "-//W3C//DTD SVG 1.1//EN" "http://www.w3.org/Graphics/SVG/1.1/DTD/svg11.dtd">
<!-- Creator: CorelDRAW -->
<svg xmlns="http://www.w3.org/2000/svg" xml:space="preserve" width="16.9332mm" height="16.9332mm" version="1.1" style="shape-rendering:geometricPrecision; text-rendering:geometricPrecision; image-rendering:optimizeQuality; fill-rule:evenodd; clip-rule:evenodd"
viewBox="0 0 1693.32 1693.32"
 xmlns:xlink="http://www.w3.org/1999/xlink"
 xmlns:xodm="http://www.corel.com/coreldraw/odm/2003">
 <defs>
  <style type="text/css">
   <![CDATA[
    .fil14 {fill:#1A1A1A}
    .fil12 {fill:#595ADC}
    .fil13 {fill:#5BD3C7}
    .fil6 {fill:#5CD4C6}
    .fil0 {fill:#5D5BE4}
    .fil1 {fill:#7171F1}
    .fil17 {fill:#939393}
    .fil4 {fill:#99DED3}
    .fil9 {fill:#D8D3D3}
    .fil8 {fill:#DAD5D6}
    .fil5 {fill:#DBD5D3}
    .fil3 {fill:#E9E9E9}
    .fil11 {fill:#EF5B24}
    .fil15 {fill:#F1F1F1}
    .fil10 {fill:#F59622}
    .fil7 {fill:#F7941E}
    .fil16 {fill:#F8F8F8}
    .fil2 {fill:#FEC939}
   ]]>
  </style>
 </defs>
 <g id="Capa_x0020_1">
  <metadata id="CorelCorpID_0Corel-Layer"/>
  <g id="_1891746616304">
  </g>
  <g id="_1891746616064">
  </g>
  <g id="_1891746616256">
  </g>
 </g>
 <g id="Capa_x0020_1_0">
  <metadata id="CorelCorpID_1Corel-Layer"/>
  <g id="_1891666147408">
  </g>
  <g id="_1891666144768">
  </g>
  <g id="_1891666177552">
  </g>
 </g>
 <g id="Capa_x0020_1_1">
  <metadata id="CorelCorpID_2Corel-Layer"/>
  <g id="_1891679385456">
  </g>
  <g id="_1891679386656">
  </g>
  <g id="_1891679442480">
  </g>
 </g>
 <g id="Capa_x0020_1_2">
  <metadata id="CorelCorpID_3Corel-Layer"/>
  <path class="fil0" d="M349.02 553.47l7.53 33.83c53.79,11.4 177.61,34.53 222.63,22.18 40.39,19.37 73.72,16.88 81.86,16.17l117.59 11.03 -4.74 -16.9c-18.04,-13.31 -17.61,-39.94 -15.85,-69.33l3.15 -50.51c2.04,-29.39 9.15,-3.6 -4.83,-20.25 -113.68,-1.85 -288.86,-50.33 -396.23,-37.26l-11.11 111.04z"/>
  <path class="fil1" d="M188.04 428.49c15.77,-3.02 33.93,-10.15 47.85,-9.26 60.9,3.92 21.2,-5.91 41.17,18.75 33.72,-16.24 58.28,-19.24 83.07,4.45 107.37,-13.07 282.55,35.41 396.23,37.26 13.98,16.65 6.87,-9.14 4.83,20.25 74.64,-47.7 376.37,-30.22 425.89,-76.58 -359.87,-3.16 -320.37,-89.92 -754.46,-37.69 -40.55,4.88 -79.3,9.18 -119.55,13.96 -21.53,2.57 -43.29,4.89 -64.64,7.33 -20.84,2.37 -45.43,5.22 -60.39,21.53z"/>
  <path class="fil2" d="M312.86 941.54l2.87 -7.24 274.41 29.65c-15.43,-71.79 -2.06,-129.96 17.5,-188.48l-28.59 -4.1 -246.89 -28.41c-21.01,58.93 -39.57,124.92 -19.3,198.58z"/>
  <path class="fil3" d="M758.84 707.62l1.67 40.51 11.56 37.06c54.03,12.23 143.17,-5.37 214.54,-14.53l181.88 -21.05c37.5,6.2 10.24,-12.16 32.74,14.95l14.03 -17.23c-16.12,-33.38 -28.42,-75.37 -20.33,-128.01 -67.16,29.64 -364.03,41.72 -400.96,57.66l-35.13 30.64z"/>
  <path class="fil3" d="M758.04 550.45c-1.76,29.39 -2.19,56.02 15.85,69.33l24.17 11.21c54.22,14.12 361.51,-58.97 406.93,-32.92 14.51,-8.6 11.28,13.95 11.84,-16.86 -34.75,-34.21 -29.66,-62.61 -21.87,-119.07 -43.81,18.1 -271.36,40.43 -342.44,48.01 -36.44,3.88 -51.11,1.36 -71.24,16.22l-17.31 17.3c-1.53,1.58 -3.76,4.71 -5.93,6.78z"/>
  <path class="fil4" d="M174.36 703.14c20.65,-30.19 -27,-20.57 51.25,-19.96l340.74 39.78 12.83 -113.48c-45.02,12.35 -168.84,-10.78 -222.63,-22.18l-77.98 -6.82 -91.67 -14.36c-18.09,43.79 -36.56,85.76 -12.54,137.02z"/>
  <path class="fil5" d="M772.07 785.19l-49.94 2.4 54.37 8.3c-32.82,52.82 -41.58,97.34 -33.6,179.74l25.54 59.59 -36.62 -1.96c23,12.02 28.7,17.92 63,8.41 30.96,-8.59 25.2,-10.8 26.61,-42.55 -12.6,-28.98 -12.29,-4.55 -58.25,-21.88 -8.96,-34.46 -16.18,-81.14 2.49,-112.38 41.43,-31.15 286.9,-52.53 336.69,-39.95l15.48 38.5 57.36 28.84c-2.33,-50.3 -2.22,-93.76 26.03,-127.69 -22.5,-27.11 4.76,-8.75 -32.74,-14.95l-181.88 21.05c-71.37,9.16 -160.51,26.76 -214.54,14.53z"/>
  <path class="fil3" d="M821.43 999.12c42.58,-50.44 18.46,-78.56 98.82,-127.87 61.83,-37.94 129.45,-43.03 197.59,-7.84l-15.48 -38.5c-49.79,-12.58 -295.26,8.8 -336.69,39.95 -18.67,31.24 -11.45,77.92 -2.49,112.38 45.96,17.33 45.65,-7.1 58.25,21.88z"/>
  <path class="fil6" d="M186.49 726.86l77.53 7.45 68.14 8.65 246.89 28.41 -12.7 -48.41 -340.74 -39.78c-78.25,-0.61 -30.6,-10.23 -51.25,19.96 13.9,20.63 6.07,9.57 12.13,23.72z"/>
  <path class="fil7" d="M164.96 936.46c21.06,44.29 63.13,38.92 122.67,44.22 -34.38,-16.99 -34.95,-9.25 -45.14,-52.22l70.37 13.08c-20.27,-73.66 -1.71,-139.65 19.3,-198.58l-68.14 -8.65c-25.55,59.59 -31.12,113.26 -25.75,191.46 -6.86,-0.52 -36.21,-3.33 -41.37,-2.7 -32.23,3.94 -11.45,-5.25 -31.94,13.39z"/>
  <path class="fil2" d="M164.96 936.46c20.49,-18.64 -0.29,-9.45 31.94,-13.39 5.16,-0.63 34.51,2.18 41.37,2.7 -5.37,-78.2 0.2,-131.87 25.75,-191.46l-77.53 -7.45c-41.7,44.2 -55.81,145.57 -21.53,209.6z"/>
  <path class="fil8" d="M773.89 619.78l4.74 16.9 -19.79 70.94 35.13 -30.64c36.93,-15.94 333.8,-28.02 400.96,-57.66l10.06 -21.25c-45.42,-26.05 -352.71,47.04 -406.93,32.92l-24.17 -11.21z"/>
  <path class="fil2" d="M660.15 970.5l82.75 5.13c-7.98,-82.4 0.78,-126.92 33.6,-179.74l-54.37 -8.3 -47.44 -4.07c-15.74,60.11 -32.86,110.2 -14.54,186.98z"/>
  <path class="fil9" d="M761.19 499.94l-3.15 50.51c2.17,-2.07 4.4,-5.2 5.93,-6.78l17.31 -17.3c20.13,-14.86 34.8,-12.34 71.24,-16.22 71.08,-7.58 298.63,-29.91 342.44,-48.01l20.54 -29.18 -28.42 -9.6c-49.52,46.36 -351.25,28.88 -425.89,76.58z"/>
  <path class="fil0" d="M186.9 566.12l91.67 14.36 -4.33 -34.81c-8.07,-37.23 -2.64,-71.58 2.82,-107.69 -19.97,-24.66 19.73,-14.83 -41.17,-18.75 -13.92,-0.89 -32.08,6.24 -47.85,9.26 -15.21,9.45 -0.09,-20.04 -16.7,18.74 -5.96,13.91 -7.05,29.05 -7.09,44.13 -0.07,33.25 9.11,56.15 22.65,74.76z"/>
  <path class="fil7" d="M319.03 978.16c25.89,19.18 233.24,34.73 284.77,38.16l-13.66 -52.37 -274.41 -29.65 3.3 43.86z"/>
  <path class="fil4" d="M641.58 736.92l0.4 -1.09 118.53 12.3 -1.67 -40.51 19.79 -70.94 -117.59 -11.03c-24.71,37.45 -24.12,63 -19.46,111.27z"/>
  <path class="fil7" d="M590.14 963.95l70.01 6.55c-18.32,-76.78 -1.2,-126.87 14.54,-186.98l-39.63 -4.97 -27.42 -3.08c-19.56,58.52 -32.93,116.69 -17.5,188.48z"/>
  <path class="fil4" d="M274.24 545.67l74.78 7.8 11.11 -111.04c-24.79,-23.69 -49.35,-20.69 -83.07,-4.45 -5.46,36.11 -10.89,70.46 -2.82,107.69z"/>
  <path class="fil1" d="M566.35 722.96l75.23 13.96c-4.66,-48.27 -5.25,-73.82 19.46,-111.27 -8.14,0.71 -41.47,3.2 -81.86,-16.17l-12.83 113.48z"/>
  <path class="fil6" d="M635.06 778.55l39.63 4.97 47.44 4.07 49.94 -2.4 -11.56 -37.06 -118.53 -12.3 4.72 30.79c-7.56,14.63 14.71,12.89 -11.64,11.93z"/>
  <polygon class="fil10" points="676.95,1026.48 731.82,1033.26 768.44,1035.22 742.9,975.63 660.15,970.5 "/>
  <polygon class="fil11" points="603.8,1016.32 676.95,1026.48 660.15,970.5 590.14,963.95 "/>
  <path class="fil12" d="M579.05 771.37l28.59 4.1 27.42 3.08c26.35,0.96 4.08,2.7 11.64,-11.93l-4.72 -30.79 -0.4 1.09 -75.23 -13.96 12.7 48.41z"/>
  <path class="fil11" d="M287.63 980.68l31.4 -2.52 -3.3 -43.86 -2.87 7.24 -70.37 -13.08c10.19,42.97 10.76,35.23 45.14,52.22z"/>
  <polygon class="fil13" points="278.57,580.48 356.55,587.3 349.02,553.47 274.24,545.67 "/>
  <path class="fil14" d="M1328.01 922.12l10.49 -116.53 46.92 41.45c56.47,19.58 35.55,11.42 67.76,57.43 -84.85,247.87 -439.13,225.78 -588.65,24.49l69.11 -107.29c58.04,67.8 32.51,188.06 162.4,225.32 125.58,35.98 204.47,-36.1 231.97,-124.87zm-191.4 -139.27l7.37 116.69c-178.82,27.21 -191.24,-139.01 -7.37,-116.69zm-355.32 121.28c96.78,314.72 573.89,349.03 751.35,24.83 -89.96,-311.64 -570.5,-343.02 -751.35,-24.83z"/>
  <path class="fil15" d="M1385.42 847.04l-57.41 75.08c-27.5,88.77 -106.39,160.85 -231.97,124.87 -129.89,-37.26 -104.36,-157.52 -162.4,-225.32l-69.11 107.29c149.52,201.29 503.8,223.38 588.65,-24.49 -32.21,-46.01 -11.29,-37.85 -67.76,-57.43z"/>
  <path class="fil16" d="M1136.61 782.85c-183.87,-22.32 -171.45,143.9 7.37,116.69l-7.37 -116.69z"/>
  <polygon class="fil17" points="1328.01,922.12 1385.42,847.04 1338.5,805.59 "/>
 </g>
</svg>
