<?xml version="1.0" encoding="UTF-8"?>
<!DOCTYPE svg PUBLIC "-//W3C//DTD SVG 1.1//EN" "http://www.w3.org/Graphics/SVG/1.1/DTD/svg11.dtd">
<!-- Creator: CorelDRAW -->
<svg xmlns="http://www.w3.org/2000/svg" xml:space="preserve" width="16.9332mm" height="16.9332mm" version="1.1" style="shape-rendering:geometricPrecision; text-rendering:geometricPrecision; image-rendering:optimizeQuality; fill-rule:evenodd; clip-rule:evenodd"
viewBox="0 0 1693.32 1693.32"
 xmlns:xlink="http://www.w3.org/1999/xlink"
 xmlns:xodm="http://www.corel.com/coreldraw/odm/2003">
 <defs>
  <style type="text/css">
   <![CDATA[
    .fil0 {fill:black}
    .fil8 {fill:#04060A}
    .fil7 {fill:#090504}
    .fil4 {fill:#555D6A}
    .fil6 {fill:#56A3FF}
    .fil1 {fill:#E6A74E}
    .fil9 {fill:#EAF6FE}
    .fil10 {fill:#EDFAFF}
    .fil5 {fill:#F3F6F7}
    .fil3 {fill:#FCC8A2}
    .fil2 {fill:#FDBA57}
   ]]>
  </style>
 </defs>
 <g id="Capa_x0020_1">
  <metadata id="CorelCorpID_0Corel-Layer"/>
  <g id="_1856194823344">
  </g>
  <g id="_1856194813456">
  </g>
  <g id="_1856194813408">
   <path class="fil0" d="M1063.83 1040.93l36.07 -1.64 3.38 62.12c-52.26,-0.7 -46.34,2.06 -39.45,-60.48zm-319.51 -694.77l20.47 0c30.99,2.34 59.86,14.1 80.63,16.6 42.58,5.13 93.71,-6.31 123.27,64.95l16.65 168.19c-6.43,51.71 -22.9,10.79 -58.42,84.04 -37.64,77.64 -42.53,28.3 -55.93,78.51 19.78,27.01 85.96,53.4 120.45,76.74 107.42,72.67 20.55,84.59 112.58,84.59 0,44.34 5.45,63.99 -8.96,89.63 20.3,5.43 35.85,8.63 35.85,35.86 0,162.89 -42.87,12.96 -53.72,125.53 -5.71,59.3 5.81,65.2 -52.46,73.02 -61.66,8.29 -151.38,25.52 -216.48,25.52 -42.14,0 -236.1,-24.42 -259.93,-35.85 -7.43,-15.49 -17.4,-84.03 -17.92,-107.56 -35.23,-0.78 -21.02,2.46 -44.82,-8.96 0,-17.33 -2.02,-47.88 -0.64,-63.38 5.73,-64.43 -1.22,-12.19 14.85,-39.06 0.04,-0.06 34.56,-21.5 3.72,-85.78 31.1,-14.93 34.72,-0.35 56.56,-24.1 10.97,-11.92 0.96,-2.38 10.6,-16.29 58.75,-84.75 142.13,-85.27 174.83,-129.91 -11.42,-42.8 -7.44,-11.52 -37.19,-43.47 -16.49,-17.72 -17.91,-30.8 -29.23,-51.43 -20.41,-37.16 -23.77,-21.03 -39.25,-41.84 -22.65,-30.41 2.12,-189.1 12.42,-207.48 27.5,-49.07 60.22,-65.41 92.07,-68.07zm-230.52 692.77l34.33 -0.68c16.23,86.51 0.82,56.88 -17.73,64.73 -14.59,-6.91 -28.84,6.23 -16.6,-64.05zm339.21 -55.24c54.68,-14.39 140.95,-35.5 194.87,-25.94 7.57,-5.4 -2.82,-8.35 29.29,-11.09 -2.21,28.63 2.45,44.29 -15.29,57.29l-11.31 14.45c-15.5,23.3 -18.88,45.36 -12.91,77.14 10.37,55.19 49.27,110.52 -45.28,124.28l-183.36 23.96 -236.19 -31.36c-26.46,-72.72 7.01,-102.29 1.66,-187.1 -39.55,-26.33 -30.96,-13.85 -36.14,-78.44 100.33,13.06 213.83,47.24 314.66,36.81zm-53.73 -60.01l21.22 -0.1 3.91 38.15 -35.87 -0.77 10.74 -37.28zm54.57 31.49c-2.36,-15.59 -6.94,-27.61 -2.91,-40.96l73.83 -82.72c50.32,16.61 82.56,46.97 106.99,88.29 -23.44,18.7 -151.2,32.93 -177.91,35.39zm-270.04 -35.39c22.49,-41.27 58.17,-74.63 107.92,-87.37 20.17,19.96 26.44,35.34 44.42,51.65 13.18,11.97 36.18,-1.4 24.95,69.89 -32.57,-1.11 -59.35,-6.89 -91.85,-12.03 -26.87,-4.24 -63.84,-5.65 -85.44,-22.14zm199.25 -28.28c0.45,-32.37 9.49,-33.3 25.19,-47.42 14.2,15.9 23.5,15.15 23.77,48.02l-48.96 -0.6zm67.38 -101.52l48.69 21.83 -24.08 46.89c-29.11,-10.87 -26.57,-5.98 -45.96,-38.38l21.35 -30.34zm-134.03 20.26c47.58,-16.27 22.84,-25.78 68.56,-0.82 -8.32,35.1 -10.12,33.51 -42.02,48.34l-26.54 -47.52zm126.46 -58.33c-2.15,30.85 -13.51,29.39 -34.62,48.66 -22.7,-15.27 -34.84,-16.13 -35.75,-47.44l70.37 -1.22zm-3.06 -229.5l75.19 3.8c7.47,40.27 9.61,97.79 -6.68,127.84 -17.94,59.8 -83.94,101.21 -156.27,62.28 -60.32,-32.46 -49.6,-107.39 -49.16,-189.35l77.47 -34.6c19.8,23.52 19.67,26.99 59.45,30.03zm-165.83 89.71c-24.22,-22.63 -24.24,-25.19 1.5,-47.89l-1.5 47.89zm280.33 -44.85l-0.11 41.71 -20.25 6.49 0.24 -55.67 20.12 7.47zm-288.78 -32.26c0.76,-55.84 -0.3,-199.67 134.89,-154.47 121.57,40.65 147.14,-27.76 150.07,154.34l-21.28 -24.8c-0.8,-3.75 -2.81,-4.64 -4.44,-6.8 -102.65,2.32 -94.66,6.7 -134.45,-44.27 -29.93,9.32 -36.44,20.42 -69.38,33.29 -22.31,8.72 -20.05,3.54 -36.01,17.2 -18.48,15.81 1.85,-3.04 -12.13,14.46l-7.27 11.05z"/>
   <path class="fil1" d="M809.02 1243.78l-5.29 -243.33c2.99,-0.01 21.56,-1.07 23.05,-1.5 25.3,-7.4 11.81,-4.28 26.23,-15.26 -100.83,10.43 -214.33,-23.75 -314.66,-36.81 5.18,64.59 -3.41,52.11 36.14,78.44 5.35,84.81 -28.12,114.38 -1.66,187.1l236.19 31.36z"/>
   <path class="fil2" d="M853.01 983.69c-14.42,10.98 -0.93,7.86 -26.23,15.26 -1.49,0.43 -20.06,1.49 -23.05,1.5l5.29 243.33 183.36 -23.96c94.55,-13.76 55.65,-69.09 45.28,-124.28 -5.97,-31.78 -2.59,-53.84 12.91,-77.14l11.31 -14.45 2.7 -42.03 -16.7 -4.17c-53.92,-9.56 -140.19,11.55 -194.87,25.94z"/>
   <path class="fil3" d="M844.54 668.82c-4.65,18.75 -1.55,30.27 -36.33,30.72 -31.94,0.42 -31.57,-8.74 -40.24,-23.69 22.33,-28.14 3.36,-6.53 34,-4.06 32.36,2.61 15.68,-12.74 42.57,-2.97zm17.48 -99.95c25.33,16.36 25.42,22.2 0,38.51 -16.42,-24.85 -12.48,-16.63 0,-38.51zm-116.52 0.38c26.54,15.09 26.66,22.65 0,37.76 -14.96,-24.34 -11.43,-16.12 0,-37.76zm162.82 84.8l4 -124.2c-19.72,1.25 -63.17,9.59 -72.51,-7.44 -39.78,-3.04 -39.65,-6.51 -59.45,-30.03l-77.47 34.6c-0.44,81.96 -11.16,156.89 49.16,189.35 72.33,38.93 138.33,-2.48 156.27,-62.28z"/>
   <path class="fil4" d="M665.53 535.01l7.27 -11.05c13.98,-17.5 -6.35,1.35 12.13,-14.46 15.96,-13.66 13.7,-8.48 36.01,-17.2 32.94,-12.87 39.45,-23.97 69.38,-33.29 39.79,50.97 31.8,46.59 134.45,44.27 1.63,2.16 3.64,3.05 4.44,6.8l21.28 24.8c-2.93,-182.1 -28.5,-113.69 -150.07,-154.34 -135.19,-45.2 -134.13,98.63 -134.89,154.47z"/>
   <path class="fil0" d="M1090.73 822.26c-17.52,9.53 22.19,16.75 -21.29,6.51l-0.12 -29.93 -55.77 -5.09 -0.95 -155.65 281.97 -0.12 -1.2 156.28c-39.02,-0.14 -79.36,-1.13 -118.19,-0.56 -51.28,0.76 -48.22,3.49 -84.45,28.56zm-103.23 -180.32c0,195.08 -14.67,179.25 53.78,179.25 0.79,35.23 -2.45,21.03 8.96,44.82 61.93,-5.15 51.03,-41.78 125.06,-45.23 162.41,-7.59 143.83,56.01 143.83,-178.84 0,-58.03 -174.38,-35.85 -277.85,-35.85 -27.52,0 -53.78,8.29 -53.78,35.85z"/>
   <path class="fil5" d="M1148.84 773.39c-81.91,0.12 -89.55,11.42 -111.06,-14.94 11.91,-7.11 -2.92,-6.49 29.98,-10.99l201.36 10.99c-19.17,23.21 -18.4,15.58 -57.2,15.23 -21.06,-0.2 -42.01,-0.33 -63.08,-0.29zm0 -44.73c-83.19,0.02 -89.75,11.46 -110.98,-15.02l29.91 -10.88c34.67,-4.7 174.95,-4.59 201.27,10.88 -18.96,23.36 -18.15,15.69 -57.12,15.33 -21.06,-0.19 -42.02,-0.32 -63.08,-0.31zm0 -44.84c-83.64,0.02 -89.9,11.49 -110.91,-15 33.55,-19.81 130.81,-12.33 182.99,-11.16 6.81,0.15 20.05,0.41 26.39,1.56 15.91,2.89 12.88,4.47 21.68,9.6 -21.12,26.32 -46.85,14.98 -120.15,15zm-79.52 115.02l8.96 12.43c1.43,1.43 4.42,4.24 5.89,5.66 1.51,1.47 4.41,3.52 6.56,5.33 36.23,-25.07 33.17,-27.8 84.45,-28.56 38.83,-0.57 79.17,0.42 118.19,0.56l1.2 -156.28 -281.97 0.12 0.95 155.65 55.77 5.09z"/>
   <path class="fil6" d="M583.81 919.78c21.6,16.49 58.57,17.9 85.44,22.14 32.5,5.14 59.28,10.92 91.85,12.03 11.23,-71.29 -11.77,-57.92 -24.95,-69.89 -17.98,-16.31 -24.25,-31.69 -44.42,-51.65 -49.75,12.74 -85.43,46.1 -107.92,87.37z"/>
   <path class="fil6" d="M853.85 955.17c26.71,-2.46 154.47,-16.69 177.91,-35.39 -24.43,-41.32 -56.67,-71.68 -106.99,-88.29l-73.83 82.72c-4.03,13.35 0.55,25.37 2.91,40.96z"/>
   <path class="fil7" d="M1037.93 668.82c21.01,26.49 27.27,15.02 110.91,15 73.3,-0.02 99.03,11.32 120.15,-15 -8.8,-5.13 -5.77,-6.71 -21.68,-9.6 -6.34,-1.15 -19.58,-1.41 -26.39,-1.56 -52.18,-1.17 -149.44,-8.65 -182.99,11.16z"/>
   <path class="fil7" d="M1037.86 713.64c21.23,26.48 27.79,15.04 110.98,15.02 21.06,-0.01 42.02,0.12 63.08,0.31 38.97,0.36 38.16,8.03 57.12,-15.33 -26.32,-15.47 -166.6,-15.58 -201.27,-10.88l-29.91 10.88z"/>
   <path class="fil8" d="M1037.78 758.45c21.51,26.36 29.15,15.06 111.06,14.94 21.07,-0.04 42.02,0.09 63.08,0.29 38.8,0.35 38.03,7.98 57.2,-15.23l-201.36 -10.99c-32.9,4.5 -18.07,3.88 -29.98,10.99z"/>
   <path class="fil9" d="M829.09 820.32c19.39,32.4 16.85,27.51 45.96,38.38l24.08 -46.89 -48.69 -21.83 -21.35 30.34z"/>
   <path class="fil10" d="M716.41 810.24l26.54 47.52c31.9,-14.83 33.7,-13.24 42.02,-48.34 -45.72,-24.96 -20.98,-15.45 -68.56,0.82z"/>
   <path class="fil1" d="M513.8 1038.93c-12.24,70.28 2.01,57.14 16.6,64.05 18.55,-7.85 33.96,21.78 17.73,-64.73l-34.33 0.68z"/>
   <path class="fil1" d="M1063.83 1040.93c-6.89,62.54 -12.81,59.78 39.45,60.48l-3.38 -62.12 -36.07 1.64z"/>
   <path class="fil1" d="M808.25 800.57c21.11,-19.27 32.47,-17.81 34.62,-48.66l-70.37 1.22c0.91,31.31 13.05,32.17 35.75,47.44z"/>
   <path class="fil7" d="M808.21 699.54c34.78,-0.45 31.68,-11.97 36.33,-30.72 -26.89,-9.77 -10.21,5.58 -42.57,2.97 -30.64,-2.47 -11.67,-24.08 -34,4.06 8.67,14.95 8.3,24.11 40.24,23.69z"/>
   <path class="fil1" d="M783.06 891.5l48.96 0.6c-0.27,-32.87 -9.57,-32.12 -23.77,-48.02 -15.7,14.12 -24.74,15.05 -25.19,47.42z"/>
   <path class="fil4" d="M908.32 654.05c16.29,-30.05 14.15,-87.57 6.68,-127.84l-75.19 -3.8c9.34,17.03 52.79,8.69 72.51,7.44l-4 124.2z"/>
   <polygon class="fil1" points="788.54,960.96 824.41,961.73 820.5,923.58 799.28,923.68 "/>
   <path class="fil1" d="M1061.88 1003.95c17.74,-13 13.08,-28.66 15.29,-57.29 -32.11,2.74 -21.72,5.69 -29.29,11.09l16.7 4.17 -2.7 42.03z"/>
   <path class="fil7" d="M862.02 607.38c25.42,-16.31 25.33,-22.15 0,-38.51 -12.48,21.88 -16.42,13.66 0,38.51z"/>
   <path class="fil7" d="M745.5 607.01c26.66,-15.11 26.54,-22.67 0,-37.76 -11.43,21.64 -14.96,13.42 0,37.76z"/>
   <path class="fil4" d="M954.2 608.98c-12.42,-14.08 -8.61,4.29 -10.81,-20.84 -3.48,-39.71 -5.35,-8.24 10.92,-20.87l-20.12 -7.47 -0.24 55.67 20.25 -6.49z"/>
   <path class="fil3" d="M673.98 612.12l1.5 -47.89c-25.74,22.7 -25.72,25.26 -1.5,47.89z"/>
   <path class="fil3" d="M954.2 608.98l0.11 -41.71c-16.27,12.63 -14.4,-18.84 -10.92,20.87 2.2,25.13 -1.61,6.76 10.81,20.84z"/>
   <path class="fil4" d="M1090.73 822.26c-2.15,-1.81 -5.05,-3.86 -6.56,-5.33 -1.47,-1.42 -4.46,-4.23 -5.89,-5.66l-8.96 -12.43 0.12 29.93c43.48,10.24 3.77,3.02 21.29,-6.51z"/>
  </g>
 </g>
</svg>
