<?xml version="1.0" encoding="UTF-8"?>
<!DOCTYPE svg PUBLIC "-//W3C//DTD SVG 1.1//EN" "http://www.w3.org/Graphics/SVG/1.1/DTD/svg11.dtd">
<!-- Creator: CorelDRAW -->
<svg xmlns="http://www.w3.org/2000/svg" xml:space="preserve" width="16.9332mm" height="16.9332mm" version="1.1" style="shape-rendering:geometricPrecision; text-rendering:geometricPrecision; image-rendering:optimizeQuality; fill-rule:evenodd; clip-rule:evenodd"
viewBox="0 0 1693.32 1693.32"
 xmlns:xlink="http://www.w3.org/1999/xlink"
 xmlns:xodm="http://www.corel.com/coreldraw/odm/2003">
 <defs>
  <style type="text/css">
   <![CDATA[
    .fil0 {fill:black}
    .fil1 {fill:#91CC04}
    .fil2 {fill:#FEDAAA}
    .fil3 {fill:#FFDB44}
   ]]>
  </style>
 </defs>
 <g id="Capa_x0020_1">
  <metadata id="CorelCorpID_0Corel-Layer"/>
  <g id="_1856007373872">
  </g>
  <g id="_1856007373056">
  </g>
  <g id="_1855813608032">
   <path class="fil0" d="M710.1 1164.93c-10.51,-14.34 -14.72,-24.63 -21.35,-49.85 130.45,-84.67 166.48,-122.47 241.34,-98.23l54.34 16.76c49.39,15.49 -8.66,-2.88 22.43,7.45l84.98 25.75 -29.99 127.21c-51.66,12.26 11,-35.04 -135.96,42.12 -81.06,42.55 -62.09,45.71 -218.49,-7.28 -2.84,-0.96 -5.49,-1.86 -8.34,-2.84 -0.16,-0.05 -16.58,-6.14 -24.66,-8.83l-117.77 -34.98c-33.83,-10.67 -12.97,-2.38 -40.94,-13.26l-38.39 -22.61 12.6 -40.75c0.63,-2.06 1.78,-5.75 2.63,-8.63 30.21,3.05 36,5.39 62.61,13.8l77.46 23.39c41.14,16.4 23.86,12.43 35.67,27.77 44.63,57.99 56.77,45.54 141.96,-0.86 65.39,-35.62 58.36,-18.96 80.93,-60.21 -49.61,-8.3 -63.08,13.55 -126.13,46.78 -34.02,17.93 -22.57,15.83 -54.93,17.3zm385.17 73.3c-15.31,-32.8 21.52,-113.39 35.19,-153.43 15,-43.97 -0.36,-27.21 32.58,-26.66 -5.33,32.2 -18.84,61.04 -27.08,89.76 -20.9,72.75 -13.46,77.13 -40.69,90.33zm-737.66 -335.93c-18.11,-27.73 -5.92,22.03 -15.41,-36.99l-0.43 -98.67c109.83,1.01 308.58,-12.66 406.04,7.01l-8.24 128.43 -381.96 0.22zm668.18 -151.93l1.78 5.05c26.88,-37.31 27.89,-34.44 55.17,-60.64l-8.27 -4.34 76.53 -21.23c39.45,-5.39 65.37,4.67 98.32,24.8l50.42 55.43c1.26,2.3 2.78,4.86 3.92,7.2 16.56,34.03 15.07,95 3.48,123.08 -13.52,32.73 -54.36,73.2 -101.76,85.06l-5.95 1.37c-17.02,1.15 -49.21,4.04 -65.17,0.84 -0.91,-0.19 -53.22,-18.97 -59.79,-21.39l8.3 -4.31c-37.76,-26.54 -29.7,-13.92 -55.17,-60.69l-1.75 5.15c-9.99,-62.95 -8.61,-75.46 -0.06,-135.38zm-10.01 -46.81c-31.93,22.42 -191.12,21.91 -230.78,0.09l230.78 -0.09zm-665.92 -42.94c-1.39,-3.14 -4.8,-2.71 -7.18,-4.1 12.9,-12.61 -20.22,-19.16 42.94,-24.46l167.71 0.98c93.28,0 180.34,-16.69 192.3,23.48 -20.32,22.45 -244.59,10.22 -306.95,10.59 -11.45,0.06 -84.21,3.84 -88.82,-6.49zm261.32 -170.84c62.8,-37.87 43.75,-8.37 85.89,-88.87l399.47 -2.64c40.29,84.55 21.9,39.4 86.51,91.54l-5.72 104.13c-31.34,-5.75 -48.4,22.88 -69.7,42.88 -73.12,68.65 -156.77,4.91 -328.31,35.75 -3.06,-52.18 -6.98,-30.17 -17.6,-66.3 -43.46,-7.2 -112.75,-15.76 -148.99,-12.24l-1.55 -104.25zm-36.6 106.32c-1.3,-2.36 -3.26,-5.31 -3.84,-7.11l-1.63 -238.69 658.72 0.09 -0.93 288.82 -62.81 -10.1c72.57,-12.02 56.93,-16.02 55.72,-171.17 -71,-44.19 -58.36,0.92 -90.79,-95.8l-464.27 0.97c-33.13,92.84 -15.55,52.07 -91.03,93.34l0.86 139.65zm-52.51 -252.23l0 250.12c-252.14,0 -218.86,-32.76 -218.86,270.97 0,38.26 16.15,50.38 31.27,72.95l416.87 0c46.1,-53.2 31.26,-39.53 31.26,-187.59l208.44 0c-12.93,26.94 -12.66,42.62 -11.05,83.76 3.2,82.32 59.73,146.14 146.53,166.36l-20.84 31.26c-226.82,-52.84 -173.3,-110.67 -348.1,-4.17 -56.74,34.57 -88.5,33.9 -100.04,77.13 -51.76,-24.84 -124.63,-41.69 -187.59,-41.69 -78.09,147.58 -10.97,121.62 259.36,209.62 232.11,75.55 155.56,-30.57 303.42,-42.87l10.41 41.68c37.66,3.14 49.67,13 83.38,20.85 30.33,-45.3 26.42,-63.89 45.53,-121.22 28.59,-85.77 81.46,-160.17 -35.11,-160.17l0 -10.42c84.38,0 108.88,-0.71 154.08,-43.93 153.09,-146.35 -18.59,-299.98 -18.59,-299.99l0.58 -281.97c0.06,-36.06 4.94,-61.95 -31.85,-61.95l-687.84 0c-24.01,0 -31.26,7.26 -31.26,31.27z"/>
   <path class="fil1" d="M996.04 577.57c-136.79,128.72 -217.36,4.76 -193.97,-74.47 29.06,-98.41 181.91,-93.54 193.65,19.29 1.78,17.01 -0.04,39.11 0.32,55.18zm-384.86 -87.79l1.55 104.25c36.24,-3.52 105.53,5.04 148.99,12.24 10.62,36.13 14.54,14.12 17.6,66.3 171.54,-30.84 255.19,32.9 328.31,-35.75 21.3,-20 38.36,-48.63 69.7,-42.88l5.72 -104.13c-64.61,-52.14 -46.22,-6.99 -86.51,-91.54l-399.47 2.64c-42.14,80.5 -23.09,51 -85.89,88.87z"/>
   <path class="fil2" d="M710.1 1164.93c32.36,-1.47 20.91,0.63 54.93,-17.3 63.05,-33.23 76.52,-55.08 126.13,-46.78 -22.57,41.25 -15.54,24.59 -80.93,60.21 -85.19,46.4 -97.33,58.85 -141.96,0.86 -11.81,-15.34 5.47,-11.37 -35.67,-27.77l-77.46 -23.39c-26.61,-8.41 -32.4,-10.75 -62.61,-13.8 -0.85,2.88 -2,6.57 -2.63,8.63l-12.6 40.75 38.39 22.61c27.97,10.88 7.11,2.59 40.94,13.26l117.77 34.98c8.08,2.69 24.5,8.78 24.66,8.83 2.85,0.98 5.5,1.88 8.34,2.84 156.4,52.99 137.43,49.83 218.49,7.28 146.96,-77.16 84.3,-29.86 135.96,-42.12l29.99 -127.21 -84.98 -25.75c-31.09,-10.33 26.96,8.04 -22.43,-7.45l-54.34 -16.76c-74.86,-24.24 -110.89,13.56 -241.34,98.23 6.63,25.22 10.84,35.51 21.35,49.85z"/>
   <path class="fil3" d="M1203.55 808.36l6.35 3.13 11.93 22.15 3.4 -4.72c11.59,70.27 -17.71,80.52 -73.41,83.69l-2.27 -8.22 -33.49 -6.93c-20.39,-17.5 -16.02,11.74 -17.17,-20.11 10.78,-4.06 82.47,-10.78 97.94,-12.45 -10.22,-33.23 35.15,-14.14 -38.61,-30.24 -44.76,-9.76 -11.53,11.54 -39.72,-14.83l-8.73 -1.41c-3.74,-10.31 -7.08,-24.82 -11.27,-36.84 19.08,-33.2 4.9,-28.93 51.54,-49.89l1.65 -8.25c84.14,8.07 72.71,18.03 84.65,40.4 -39.18,9.92 -20.01,-1.2 -58.54,2.37 -59.2,5.49 -32.01,4.35 -42.89,33.5l68.64 8.65zm-129.08 -117.92l8.27 4.34c-27.28,26.2 -28.29,23.33 -55.17,60.64l-1.78 -5.05c-8.55,59.92 -9.93,72.43 0.06,135.38l1.75 -5.15c25.47,46.77 17.41,34.15 55.17,60.69l-8.3 4.31c6.57,2.42 58.88,21.2 59.79,21.39 15.96,3.2 48.15,0.31 65.17,-0.84l5.95 -1.37c47.4,-11.86 88.24,-52.33 101.76,-85.06 11.59,-28.08 13.08,-89.05 -3.48,-123.08 -1.14,-2.34 -2.66,-4.9 -3.92,-7.2l-50.42 -55.43c-32.95,-20.13 -58.87,-30.19 -98.32,-24.8l-76.53 21.23z"/>
   <path class="fil1" d="M357.61 902.3l381.96 -0.22 8.24 -128.43c-97.46,-19.67 -296.21,-6 -406.04,-7.01l0.43 98.67c9.49,59.02 -2.7,9.26 15.41,36.99z"/>
   <path class="fil1" d="M574.58 596.1l-0.86 -139.65c75.48,-41.27 57.9,-0.5 91.03,-93.34l464.27 -0.97c32.43,96.72 19.79,51.61 90.79,95.8 1.21,155.15 16.85,159.15 -55.72,171.17l62.81 10.1 0.93 -288.82 -658.72 -0.09 1.63 238.69c0.58,1.8 2.54,4.75 3.84,7.11z"/>
   <path class="fil0" d="M941.07 586.62l-2.18 4.47 -26.79 8.24 -30.24 0.31 -26.24 -7.9 7.69 -4.34 -22 -11.74 -4.05 -2.56c-11.75,-47.76 -11.15,-41.97 8.85,-83.32l9.46 -9.14c42.69,-20.9 25.65,-14.16 72.9,-10.82 0.94,1.5 2.95,1.88 3.39,4.11 0.45,2.28 3.12,3.29 3.76,3.96 28.31,29.2 24.56,24.42 28.87,87.56l-23.42 21.17zm54.97 -9.05c-0.36,-16.07 1.46,-38.17 -0.32,-55.18 -11.74,-112.83 -164.59,-117.7 -193.65,-19.29 -23.39,79.23 57.18,203.19 193.97,74.47z"/>
   <path class="fil3" d="M855.57 480.64c-13.82,-1.64 -10.68,-4.71 -9.46,9.14 -20,41.35 -20.6,35.56 -8.85,83.32l4.05 2.56 22 11.74 -7.69 4.34 26.24 7.9 30.24 -0.31 26.79 -8.24 2.18 -4.47 23.42 -21.17c-4.31,-63.14 -0.56,-58.36 -28.87,-87.56 -0.64,-0.67 -3.31,-1.68 -3.76,-3.96 -0.44,-2.23 -2.45,-2.61 -3.39,-4.11 -47.25,-3.34 -30.21,-10.08 -72.9,10.82z"/>
   <path class="fil1" d="M342.68 656.52c2.38,1.39 5.79,0.96 7.18,4.1 4.61,10.33 77.37,6.55 88.82,6.49 62.36,-0.37 286.63,11.86 306.95,-10.59 -11.96,-40.17 -99.02,-23.48 -192.3,-23.48l-167.71 -0.98c-63.16,5.3 -30.04,11.85 -42.94,24.46z"/>
   <path class="fil0" d="M1150.04 731.69c-46.64,20.96 -32.46,16.69 -51.54,49.89 4.19,12.02 7.53,26.53 11.27,36.84l8.73 1.41c28.19,26.37 -5.04,5.07 39.72,14.83 73.76,16.1 28.39,-2.99 38.61,30.24 -15.47,1.67 -87.16,8.39 -97.94,12.45 1.15,31.85 -3.22,2.61 17.17,20.11l33.49 6.93 2.27 8.22c55.7,-3.17 85,-13.42 73.41,-83.69l-3.4 4.72 -11.93 -22.15 -6.35 -3.13 -68.64 -8.65c10.88,-29.15 -16.31,-28.01 42.89,-33.5 38.53,-3.57 19.36,7.55 58.54,-2.37 -11.94,-22.37 -0.51,-32.33 -84.65,-40.4l-1.65 8.25z"/>
   <path class="fil2" d="M1095.27 1238.23c27.23,-13.2 19.79,-17.58 40.69,-90.33 8.24,-28.72 21.75,-57.56 27.08,-89.76 -32.94,-0.55 -17.58,-17.31 -32.58,26.66 -13.67,40.04 -50.5,120.63 -35.19,153.43z"/>
   <path class="fil1" d="M785 703.65c39.66,21.82 198.85,22.33 230.78,-0.09l-230.78 0.09z"/>
   <path class="fil2" d="M855.57 480.64l-9.46 9.14c-1.22,-13.85 -4.36,-10.78 9.46,-9.14z"/>
   <polygon class="fil2" points="841.31,575.66 837.26,573.1 "/>
   <polygon class="fil2" points="855.62,591.74 863.31,587.4 "/>
   <polygon class="fil2" points="941.07,586.62 938.89,591.09 "/>
   <polygon class="fil2" points="912.1,599.33 881.86,599.64 "/>
   <polygon class="fil2" points="1074.47,690.44 1082.74,694.78 "/>
   <polygon class="fil2" points="1151.69,723.44 1150.04,731.69 "/>
   <polygon class="fil2" points="1027.57,755.42 1025.79,750.37 "/>
   <polygon class="fil2" points="1209.9,811.49 1203.55,808.36 "/>
   <polygon class="fil2" points="1118.5,819.83 1109.77,818.42 "/>
   <polygon class="fil2" points="1225.23,828.92 1221.83,833.64 "/>
   <polygon class="fil2" points="1027.6,880.6 1025.85,885.75 "/>
   <polygon class="fil2" points="1149.55,904.39 1116.06,897.46 "/>
   <polygon class="fil2" points="1151.82,912.61 1149.55,904.39 "/>
   <polygon class="fil2" points="1074.47,945.6 1082.77,941.29 "/>
   <polygon class="fil2" points="1205.38,964.78 1199.43,966.15 "/>
  </g>
 </g>
</svg>
